# xmcd
#
# Track frame offsets: 
#        150
#        9842
#        24454
#        37771
#        51979
#        70808
#        81565
#        100302
#        119856
#
# Disc length: 1779 seconds
#
# Revision: 0
# Processed by: cddbd v1.5PL3 Copyright (c) Steve Scherf et al.
# Submitted via: ExactAudioCopy v0.90b4
#
DISCID=7206f109
DTITLE=Anna Moo with Bo Diddley - Moochas Gracias
DYEAR=2002
DGENRE=Childrens
TTITLE0=Puddle Stomping
TTITLE1=Piece Of The Pie
TTITLE2=Bob-along
TTITLE3=Konichi-wa
TTITLE4=Ordinary Extraordinary
TTITLE5=Peanut Butter Blues
TTITLE6=Summertime Song
TTITLE7=I've Got A Friend
TTITLE8=Right Side Up
EXTD=
EXTT0=
EXTT1=
EXTT2=
EXTT3=
EXTT4=
EXTT5=
EXTT6=
EXTT7=
EXTT8=
PLAYORDER=
